<svg xmlns="http://www.w3.org/2000/svg" viewBox="0 0 100 100" width="120" height="120">
  <defs>
    <linearGradient id="bg" x1="0" y1="0" x2="0.3" y2="1">
      <stop offset="0" stop-color="#fb923c"/>
      <stop offset="1" stop-color="#8a5021"/>
    </linearGradient>
    <filter id="sh" x="-30%" y="-30%" width="160%" height="160%">
      <feDropShadow dx="0" dy="2" stdDeviation="1.6" flood-color="#000" flood-opacity="0.45"/>
    </filter>
  </defs>
  <rect x="7" y="7" width="86" height="86" rx="20" fill="url(#bg)"
        stroke="rgba(255,255,255,0.28)" stroke-width="1.5"/>
  <rect x="9.5" y="9.5" width="81" height="81" rx="17" fill="none"
        stroke="rgba(255,215,0,0.35)" stroke-width="1"/>
  <g fill="#ffffff" filter="url(#sh)"><g><circle cx="40" cy="58" r="9"/><circle cx="52" cy="56" r="8"/><circle cx="62" cy="54" r="6.5"/><path d="M67 52 q14 -4 16 -18 q0 -6 -6 -8" fill="none" stroke="#fff" stroke-width="6" stroke-linecap="round"/><circle cx="77" cy="24" r="5"/><path d="M34 56 q-12 -6 -20 -2" fill="none" stroke="#fff" stroke-width="5" stroke-linecap="round"/><path d="M34 60 q-12 4 -18 12" fill="none" stroke="#fff" stroke-width="5" stroke-linecap="round"/><circle cx="13" cy="52" r="4"/><circle cx="15" cy="73" r="4"/></g></g>
</svg>
