<svg xmlns="http://www.w3.org/2000/svg" viewBox="0 0 100 100" width="120" height="120">
  <defs>
    <linearGradient id="bg" x1="0" y1="0" x2="0.3" y2="1">
      <stop offset="0" stop-color="#a78bfa"/>
      <stop offset="1" stop-color="#5b4c89"/>
    </linearGradient>
    <filter id="sh" x="-30%" y="-30%" width="160%" height="160%">
      <feDropShadow dx="0" dy="2" stdDeviation="1.6" flood-color="#000" flood-opacity="0.45"/>
    </filter>
  </defs>
  <rect x="7" y="7" width="86" height="86" rx="20" fill="url(#bg)"
        stroke="rgba(255,255,255,0.28)" stroke-width="1.5"/>
  <rect x="9.5" y="9.5" width="81" height="81" rx="17" fill="none"
        stroke="rgba(255,215,0,0.35)" stroke-width="1"/>
  <g fill="#ffffff" filter="url(#sh)"><path d="M50 22 C 62 40 80 48 80 61 C 80 69 74 73 68 73 C 62 73 57 69 55 65 C 56 71 58 75 62 79 L38 79 C 42 75 44 71 45 65 C 43 69 38 73 32 73 C 26 73 20 69 20 61 C 20 48 38 40 50 22 Z"/></g>
</svg>
