<svg xmlns="http://www.w3.org/2000/svg" viewBox="0 0 100 100" width="120" height="120">
  <defs>
    <linearGradient id="bg" x1="0" y1="0" x2="0.3" y2="1">
      <stop offset="0" stop-color="#a855f7"/>
      <stop offset="1" stop-color="#5c2e87"/>
    </linearGradient>
    <filter id="sh" x="-30%" y="-30%" width="160%" height="160%">
      <feDropShadow dx="0" dy="2" stdDeviation="1.6" flood-color="#000" flood-opacity="0.45"/>
    </filter>
  </defs>
  <rect x="7" y="7" width="86" height="86" rx="20" fill="url(#bg)"
        stroke="rgba(255,255,255,0.28)" stroke-width="1.5"/>
  <rect x="9.5" y="9.5" width="81" height="81" rx="17" fill="none"
        stroke="rgba(255,215,0,0.35)" stroke-width="1"/>
  <g fill="#ffffff" filter="url(#sh)"><g><path d="M50 18 L57 43 L82 50 L57 57 L50 82 L43 57 L18 50 L43 43 Z"/><path d="M78 22 L80 30 L88 32 L80 34 L78 42 L76 34 L68 32 L76 30 Z"/><path d="M24 60 L26 67 L33 69 L26 71 L24 78 L22 71 L15 69 L22 67 Z"/></g></g>
</svg>
